<svg xmlns="http://www.w3.org/2000/svg" xmlns:xlink="http://www.w3.org/1999/xlink" id="Layer_1" x="0px" y="0px" viewBox="0 0 42.27 50" style="enable-background:new 0 0 42.27 50;" xml:space="preserve">
<style type="text/css">
	.st0{fill:#FFFFFF;}
</style>
<path class="st0" d="M9.95,33.15l4.99-1.76c0.63-0.22,0.95-0.91,0.73-1.53c-0.22-0.63-0.91-0.96-1.53-0.73l-4.97,1.75  C8.23,31.19,0,34.26,0,45.63c0,1.17,0.92,2.13,2.05,2.14h0.01c0.66,0,1.2-0.53,1.2-1.2c0-0.55-0.36-1.01-0.86-1.16  C2.5,35.91,9.16,33.41,9.95,33.15z M34.55,40.36c-0.66,0-1.2,0.54-1.2,1.2v6.03H8.92v-6.85c0-0.66-0.54-1.2-1.2-1.2  c-0.66,0-1.2,0.54-1.2,1.2v7.11c0,1.18,0.93,2.14,2.06,2.14h25.11c1.14,0,2.06-0.96,2.06-2.14v-6.3  C35.75,40.9,35.21,40.36,34.55,40.36z M33.12,30.88l-4.75-1.67l-0.61-0.57c0.68-1.26,1.34-2.91,1.71-4c2.73-3.1,2.36-5.62,1.72-7.05  c0.85-4.88-0.62-7.94-2.03-9.65c-1.91-2.32-4.82-3.6-8.22-3.6c-3.14,0-5.62,1.01-7.37,3c-3.12,3.55-2.8,9.15-2.65,10.65  c-0.37,1.06-0.54,2.63,0.42,4.54c0.3,0.59,1.02,0.83,1.61,0.53c0.59-0.3,0.83-1.02,0.53-1.61c-0.52-1.03-0.59-1.98-0.23-2.83  c0.08-0.2,0.11-0.41,0.09-0.63c-0.03-0.24-0.73-5.91,2.04-9.07c1.27-1.45,3.14-2.18,5.56-2.18c2.66,0,4.92,0.97,6.36,2.72  c1.6,1.95,2.11,4.74,1.45,8.07c-0.06,0.28-0.01,0.57,0.13,0.82c0.76,1.37,0.29,3.05-1.36,4.86c-0.12,0.13-0.2,0.28-0.26,0.44  c-0.48,1.48-1.37,3.57-2.03,4.53c-0.34,0.49-0.26,1.15,0.17,1.56l1.5,1.41c0.12,0.11,0.27,0.2,0.42,0.26l5.01,1.76  c0.3,0.1,7.42,2.59,7.52,12.26c-0.5,0.15-0.86,0.61-0.86,1.16c0,0.66,0.54,1.2,1.2,1.2h0.01c1.13-0.01,2.05-0.96,2.05-2.14  C42.27,34.07,33.47,31,33.12,30.88z M21.13,36.62c-0.66,0-1.2,0.54-1.2,1.2v6.86c0,0.66,0.54,1.2,1.2,1.2c0.66,0,1.2-0.54,1.2-1.2  v-6.86C22.33,37.16,21.8,36.62,21.13,36.62z M21.13,32.12c-0.8,0-1.44,0.65-1.44,1.44c0,0.8,0.65,1.44,1.44,1.44  c0.8,0,1.44-0.65,1.44-1.44C22.58,32.76,21.93,32.12,21.13,32.12z M20.6,25.97c-8.17,0.46-9.52-2.4-9.74-3.28  c-0.16-0.64-0.82-1.04-1.46-0.87c-0.64,0.16-1.04,0.81-0.87,1.46c0.4,1.61,2.22,5.15,10.43,5.15c0.56,0,1.15-0.02,1.77-0.05  c0.66-0.04,1.17-0.6,1.13-1.27C21.83,26.44,21.26,25.93,20.6,25.97z M8.38,21.12c0.66,0,1.2-0.54,1.2-1.2v-5.98  c0-6.36,5.18-11.54,11.54-11.54c6.36,0,11.54,5.18,11.54,11.54v5.98c0,0.66,0.54,1.2,1.2,1.2c0.66,0,1.2-0.54,1.2-1.2v-5.98  C35.06,6.25,28.8,0,21.11,0S7.17,6.25,7.17,13.94v5.98C7.17,20.58,7.71,21.12,8.38,21.12z"></path>
</svg>