<svg xmlns="http://www.w3.org/2000/svg" xmlns:xlink="http://www.w3.org/1999/xlink" x="0px" y="0px" viewBox="0 0 53.9 53.39" style="enable-background:new 0 0 53.9 53.39;" xml:space="preserve">
<style type="text/css">
	.st0{fill:#FFFFFF;}
</style>
<g id="Guides_For_Artboard">
</g>
<g id="Layer_2">
	<g>
		<g>
			<g>
				<path class="st0" d="M2.61,45.88c-0.33,0-0.65-0.2-0.77-0.53c-0.16-0.42,0.06-0.9,0.48-1.06l35.74-13.34      c0.42-0.16,0.9,0.06,1.06,0.48c0.16,0.42-0.06,0.9-0.48,1.06L2.89,45.83C2.8,45.87,2.7,45.88,2.61,45.88z"></path>
				<path class="st0" d="M5.35,53.25c-0.33,0-0.65-0.2-0.77-0.53c-0.16-0.42,0.06-0.9,0.48-1.06L40.8,38.32      c0.42-0.16,0.9,0.06,1.06,0.48c0.16,0.42-0.06,0.9-0.48,1.06L5.64,53.19C5.54,53.23,5.45,53.25,5.35,53.25z"></path>
				<path class="st0" d="M40.26,40.06c-1.69,0-3.41-1.3-4.16-3.3c-0.43-1.15-0.48-2.38-0.15-3.44c0.35-1.14,1.1-1.98,2.1-2.35      c1-0.37,2.12-0.23,3.13,0.4c0.95,0.59,1.71,1.55,2.14,2.7c0.43,1.15,0.48,2.38,0.15,3.44c-0.35,1.14-1.1,1.98-2.1,2.35      C41.01,39.99,40.64,40.06,40.26,40.06z M39.19,32.4c-0.19,0-0.38,0.03-0.56,0.1c-0.52,0.19-0.91,0.66-1.11,1.3      c-0.22,0.72-0.18,1.57,0.12,2.38c0.59,1.58,2.04,2.56,3.16,2.14c0.52-0.19,0.91-0.66,1.11-1.3c0.22-0.72,0.18-1.57-0.12-2.38      l0,0c-0.3-0.81-0.83-1.48-1.47-1.88C39.94,32.52,39.55,32.4,39.19,32.4z"></path>
				<path class="st0" d="M4.52,53.39c-1.69,0-3.41-1.3-4.16-3.3c-0.43-1.15-0.48-2.38-0.15-3.44c0.35-1.14,1.1-1.98,2.1-2.35      c0.42-0.16,0.9,0.06,1.06,0.48c0.16,0.42-0.06,0.9-0.48,1.06c-0.52,0.19-0.91,0.66-1.11,1.3C1.56,47.86,1.6,48.7,1.9,49.52      c0.59,1.58,2.04,2.56,3.16,2.14c0.42-0.16,0.9,0.06,1.06,0.48c0.16,0.42-0.06,0.9-0.48,1.06C5.28,53.33,4.9,53.39,4.52,53.39z"></path>
				<path class="st0" d="M12.97,50.24c-1.69,0-3.41-1.3-4.16-3.3c-0.92-2.45-0.04-5.05,1.95-5.8c0.42-0.16,0.9,0.06,1.06,0.48      c0.16,0.42-0.06,0.9-0.48,1.06c-1.12,0.42-1.58,2.11-0.99,3.69c0.59,1.58,2.04,2.56,3.16,2.14c0.42-0.16,0.9,0.06,1.06,0.48      c0.16,0.42-0.06,0.9-0.48,1.06C13.72,50.18,13.35,50.24,12.97,50.24z"></path>
			</g>
			<g>
				<path class="st0" d="M42.11,29.91c-0.43,0-0.79-0.34-0.82-0.77c-0.11-1.78,1.22-2.78,2.03-3.09c0.15-0.06,0.32-0.07,0.48-0.03      c0.28,0.06,0.56,0.1,0.85,0.1c2.06,0,3.73-1.67,3.73-3.73c0-0.31-0.04-0.61-0.11-0.91c-0.11-0.44,0.16-0.88,0.6-0.99      c0.44-0.11,0.88,0.16,0.99,0.6c0.11,0.43,0.16,0.87,0.16,1.31c0,2.96-2.41,5.37-5.37,5.37c-0.31,0-0.62-0.03-0.92-0.08      c-0.3,0.17-0.84,0.59-0.79,1.36c0.03,0.45-0.32,0.84-0.77,0.87C42.15,29.91,42.13,29.91,42.11,29.91z"></path>
				<path class="st0" d="M38.05,29.59c-0.13,0-0.26-0.03-0.38-0.09c-1.88-0.99-2.31-3.17-2.37-3.53c-0.34-1.42-0.03-2.92,0.81-4.09      c-0.77-0.79-1.3-1.75-1.57-2.84c-0.81-3.32,1.23-6.68,4.55-7.5c0.12-0.03,0.24-0.06,0.37-0.08c0.37-2.46,2.2-4.51,4.66-5.11      c0.44-0.11,0.88,0.16,0.99,0.6c0.11,0.44-0.16,0.88-0.6,0.99c-1.98,0.48-3.4,2.24-3.47,4.27c-0.01,0.42-0.34,0.76-0.77,0.79      c-0.27,0.02-0.53,0.06-0.79,0.12c-2.44,0.6-3.94,3.07-3.34,5.51c0.25,1,0.81,1.87,1.62,2.51c0.19,0.15,0.3,0.36,0.31,0.6      c0.01,0.24-0.08,0.47-0.24,0.63c-0.85,0.83-1.2,2.07-0.92,3.22c0.01,0.03,0.01,0.06,0.02,0.08c0,0.01,0.26,1.69,1.51,2.35      c0.4,0.21,0.55,0.71,0.34,1.11C38.63,29.43,38.35,29.59,38.05,29.59z"></path>
				<path class="st0" d="M40.64,15.4c-0.33,0-0.64-0.2-0.76-0.52c-0.06-0.16-0.61-1.6-0.48-2.77c0.05-0.45,0.46-0.77,0.91-0.72      c0.45,0.05,0.77,0.46,0.72,0.91c-0.07,0.65,0.25,1.68,0.37,1.99c0.16,0.42-0.04,0.9-0.47,1.06      C40.84,15.38,40.74,15.4,40.64,15.4z"></path>
				<path class="st0" d="M37.25,22.62c-0.2,0-0.4-0.07-0.56-0.22c-0.33-0.31-0.35-0.83-0.04-1.16c0.6-0.64,1.2-1.07,2.03-1.46      c0.41-0.19,0.9-0.02,1.09,0.39c0.19,0.41,0.02,0.9-0.39,1.09c-0.64,0.3-1.08,0.62-1.54,1.1C37.69,22.54,37.47,22.62,37.25,22.62      z"></path>
				<path class="st0" d="M48.38,22.1c-0.63,0-1.24-0.1-1.83-0.31c-0.43-0.15-0.65-0.62-0.5-1.05c0.15-0.43,0.62-0.65,1.05-0.5      c0.41,0.14,0.84,0.22,1.29,0.22c2.14,0,3.89-1.74,3.89-3.89c0-0.45,0.37-0.82,0.82-0.82c0.45,0,0.82,0.37,0.82,0.82      C53.9,19.62,51.42,22.1,48.38,22.1z"></path>
				<path class="st0" d="M41.61,9.58c-0.27,0-0.53-0.13-0.69-0.37c-1.75-2.7-0.29-5.57-0.23-5.69c0.21-0.4,0.71-0.56,1.11-0.35      c0.4,0.21,0.56,0.7,0.35,1.1c-0.05,0.09-1.07,2.15,0.15,4.04c0.25,0.38,0.14,0.89-0.24,1.13C41.92,9.54,41.77,9.58,41.61,9.58z"></path>
				<path class="st0" d="M42.43,2.04c-0.1,0-0.2-0.02-0.3-0.06c-0.42-0.17-0.63-0.65-0.46-1.07l0.16-0.4      C42,0.1,42.48-0.11,42.9,0.06c0.42,0.17,0.63,0.65,0.46,1.07l-0.16,0.4C43.07,1.85,42.76,2.04,42.43,2.04z"></path>
			</g>
		</g>
	</g>
</g>
</svg>