<svg xmlns="http://www.w3.org/2000/svg" xmlns:xlink="http://www.w3.org/1999/xlink" x="0px" y="0px" viewBox="0 0 54.94 56" style="enable-background:new 0 0 54.94 56;" xml:space="preserve">
<style type="text/css">
	.st0{fill:#FFFFFF;}
</style>
<g id="Guides_For_Artboard">
</g>
<g id="Layer_2">
	<g>
		<path class="st0" d="M44.98,44.43c-1.01,0-2.01,0.06-2.97,0.19c-0.47,0.06-0.8,0.5-0.74,0.97c0.02,0.13,0.07,0.26,0.14,0.36    l-1.43-0.47c-0.54-0.18-1.13-0.16-1.66,0.05c-2.13,0.84-3.31,2.07-3.31,3.45v2.46c0,2.96,5.13,4.56,9.96,4.56s9.96-1.6,9.96-4.56    v-2.46C54.94,46.03,49.81,44.43,44.98,44.43z M53.22,51.44c0,1.15-3.21,2.83-8.24,2.83c-5.03,0-8.24-1.68-8.24-2.83v-2.46    c0-0.6,0.85-1.31,2.21-1.85c0.08-0.03,0.17-0.05,0.26-0.05c0.07,0,0.15,0.01,0.22,0.04l10.1,3.32c-1.35,0.34-2.93,0.52-4.55,0.52    c-2.17,0-4.24-0.32-5.83-0.91c-0.45-0.17-0.94,0.06-1.11,0.51c-0.17,0.45,0.06,0.94,0.51,1.11c1.77,0.66,4.05,1.02,6.43,1.02    c2.96,0,5.72-0.55,7.57-1.52c0,0,0,0,0.01,0c0,0,0.01,0,0.01,0c0.01,0,0.02-0.01,0.03-0.02c0.01-0.01,0.03-0.02,0.04-0.02    c0.01-0.01,0.02-0.02,0.03-0.02s0.02-0.02,0.03-0.02c0.01-0.01,0.02-0.02,0.03-0.03c0.01-0.01,0.02-0.02,0.03-0.03    c0.01-0.01,0.02-0.02,0.03-0.03c0.01-0.01,0.02-0.02,0.03-0.03c0.01-0.01,0.02-0.02,0.03-0.03c0.01-0.01,0.02-0.02,0.02-0.03    c0.01-0.01,0.02-0.02,0.02-0.04c0.01-0.01,0.01-0.02,0.02-0.04c0.01-0.01,0.01-0.03,0.02-0.04c0.01-0.01,0.01-0.02,0.02-0.04    c0.01-0.02,0.01-0.03,0.02-0.05c0-0.01,0.01-0.02,0.01-0.03c0,0,0,0,0-0.01C53,50.65,53,50.63,53,50.62    c0-0.01,0.01-0.02,0.01-0.03c0-0.02,0.01-0.03,0.01-0.05c0-0.01,0-0.03,0.01-0.04c0-0.01,0-0.01,0-0.02c0-0.04,0-0.08,0-0.12    c0-0.01,0-0.02,0-0.03c0-0.01,0-0.02,0-0.03c0-0.04-0.01-0.07-0.02-0.11c0-0.01,0-0.02-0.01-0.03c0-0.01-0.01-0.02-0.01-0.03    c-0.01-0.02-0.01-0.03-0.02-0.05c0-0.01-0.01-0.02-0.01-0.03c-0.01-0.02-0.01-0.03-0.02-0.05c0,0,0,0,0,0    c0-0.01-0.01-0.02-0.01-0.02c-0.01-0.02-0.02-0.03-0.03-0.05c-0.01-0.01-0.01-0.02-0.02-0.03c-0.01-0.01-0.02-0.02-0.03-0.04    c-0.01-0.01-0.02-0.02-0.03-0.03c-0.01-0.01-0.02-0.02-0.03-0.03c-0.01-0.01-0.02-0.02-0.03-0.03c-0.01-0.01-0.02-0.02-0.03-0.03    c-0.01-0.01-0.02-0.02-0.03-0.03c-0.01-0.01-0.02-0.02-0.03-0.03c-0.01-0.01-0.02-0.02-0.04-0.02c-0.01-0.01-0.02-0.01-0.04-0.02    c-0.01-0.01-0.03-0.01-0.04-0.02c-0.01-0.01-0.02-0.01-0.03-0.02c-0.02-0.01-0.03-0.01-0.05-0.02c-0.01,0-0.02-0.01-0.02-0.01    l-0.01,0c0,0,0,0,0,0l-9.96-3.27c0.81-0.1,1.65-0.15,2.51-0.15c5.03,0,8.24,1.68,8.24,2.83V51.44z"></path>
		<path class="st0" d="M33.17,50.69c-3.58-0.95-6.08-4.21-6.08-7.92c0-4.52,3.68-8.2,8.2-8.2s8.2,3.68,8.2,8.2    c0,0.48,0.39,0.86,0.86,0.86c0.48,0,0.86-0.39,0.86-0.86c0-5.47-4.45-9.92-9.92-9.92c-5.47,0-9.92,4.45-9.92,9.92    c0,4.49,3.03,8.44,7.36,9.59c0.07,0.02,0.15,0.03,0.22,0.03c0.38,0,0.73-0.26,0.83-0.64C33.91,51.29,33.63,50.82,33.17,50.69z"></path>
		<path class="st0" d="M39.45,36.92L29.53,47.2c-0.33,0.34-0.32,0.89,0.02,1.22c0.17,0.16,0.38,0.24,0.6,0.24    c0.23,0,0.45-0.09,0.62-0.26l9.91-10.28c0.33-0.34,0.32-0.89-0.02-1.22C40.32,36.57,39.78,36.58,39.45,36.92z"></path>
		<path class="st0" d="M46.24,41.72c2.73,0.17,5.48,0.93,5.48,2.06v0.53c0,0.48,0.39,0.86,0.86,0.86c0.48,0,0.86-0.39,0.86-0.86    v-0.53c0-2.13-2.59-3.51-7.1-3.79c-0.48-0.03-0.89,0.33-0.92,0.81C45.4,41.28,45.76,41.69,46.24,41.72z"></path>
		<path class="st0" d="M29.39,52.7H3.74c-1.11,0-2.01-0.96-2.01-2.14V16.74c0-1.32,0.79-2.52,1.95-2.99l7.59-3.03h13.97l8.04,3.06    c0.84,0.32,1.49,1.01,1.8,1.86H18.5c-0.48,0-0.86,0.39-0.86,0.86c0,0.48,0.39,0.86,0.86,0.86h16.78v2.81H15.43    c-1.91,0-3.47,1.61-3.47,3.59v16.88c0,1.98,1.56,3.59,3.47,3.59h7.07c0.48,0,0.86-0.39,0.86-0.86c0-0.48-0.39-0.86-0.86-0.86    h-7.07c-0.96,0-1.74-0.83-1.74-1.86V23.77c0-1.02,0.78-1.86,1.74-1.86h19.84v8.05c0,0.48,0.39,0.86,0.86,0.86    c0.48,0,0.86-0.39,0.86-0.86V16.79c0-2.05-1.25-3.91-3.11-4.62l-3.8-1.44h4.74c1.14,0,2.07-0.93,2.07-2.07V6.69    c0-0.48-0.39-0.86-0.86-0.86H1.82V2.07c0-0.19,0.16-0.35,0.35-0.35h32.67c0.19,0,0.35,0.16,0.35,0.35v1.01h-7.57    c-0.48,0-0.86,0.39-0.86,0.86c0,0.48,0.39,0.86,0.86,0.86h10.83c0.48,0,0.86-0.39,0.86-0.86c0-0.48-0.39-0.86-0.86-0.86h-1.53    V2.07c0-1.14-0.93-2.07-2.07-2.07H2.17C1.02,0,0.09,0.93,0.09,2.07v6.57c0,1.14,0.93,2.07,2.07,2.07h4.44l-3.57,1.42    C1.22,12.87,0,14.72,0,16.74v33.82c0,2.13,1.68,3.86,3.74,3.86h25.66c0.48,0,0.86-0.39,0.86-0.86    C30.26,53.08,29.87,52.7,29.39,52.7z M1.82,8.65v-1.1h33.36v1.1c0,0.19-0.16,0.35-0.35,0.35H11.12c0,0,0,0-0.01,0H2.17    C1.98,9,1.82,8.84,1.82,8.65z"></path>
		<path class="st0" d="M4.61,34.45c-0.48,0-0.86,0.39-0.86,0.86v0.83c0,0.48,0.39,0.86,0.86,0.86s0.86-0.39,0.86-0.86v-0.83    C5.48,34.83,5.09,34.45,4.61,34.45z"></path>
		<path class="st0" d="M5.48,18.94c0-0.87,0.71-1.58,1.58-1.58h3.67c0.48,0,0.86-0.39,0.86-0.86c0-0.48-0.39-0.86-0.86-0.86H7.05    c-1.82,0-3.3,1.48-3.3,3.3v12.19c0,0.48,0.39,0.86,0.86,0.86s0.86-0.39,0.86-0.86V18.94z"></path>
	</g>
</g>
</svg>