<svg xmlns="http://www.w3.org/2000/svg" xmlns:xlink="http://www.w3.org/1999/xlink" id="Layer_1" x="0px" y="0px" viewBox="0 0 46 46" style="enable-background:new 0 0 46 46;" xml:space="preserve">
<style type="text/css">
	.st0{fill:#FFFFFF;}
</style>
<g>
	<g>
		<g>
			<path class="st0" d="M23,0C10.32,0,0,10.32,0,23s10.32,23,23,23s23-10.32,23-23S35.68,0,23,0z M23,44.08     C11.37,44.08,1.92,34.63,1.92,23S11.37,1.92,23,1.92S44.08,11.37,44.08,23S34.63,44.08,23,44.08z"></path>
			<path class="st0" d="M32.14,22.19l-13.42-8.62c-0.29-0.19-0.67-0.2-0.98-0.04c-0.31,0.17-0.5,0.49-0.5,0.84v17.25     c0,0.35,0.19,0.67,0.5,0.84c0.14,0.08,0.3,0.12,0.46,0.12c0.18,0,0.36-0.05,0.52-0.15l13.42-8.62c0.27-0.18,0.44-0.48,0.44-0.81     S32.42,22.37,32.14,22.19z M19.17,29.87V16.13L29.85,23L19.17,29.87z"></path>
		</g>
	</g>
</g>
</svg>