<svg xmlns="http://www.w3.org/2000/svg" xmlns:xlink="http://www.w3.org/1999/xlink" x="0px" y="0px" viewBox="0 0 36.43 56" style="enable-background:new 0 0 36.43 56;" xml:space="preserve">
<style type="text/css">
	.st0{fill:#FFFFFF;}
</style>
<g id="Guides_For_Artboard">
</g>
<g id="Layer_2">
	<g>
		<path class="st0" d="M35.55,6.37h-8.69v-5.5c0-0.49-0.39-0.88-0.88-0.88H10.45C9.97,0,9.57,0.39,9.57,0.88v5.5H0.88    C0.39,6.37,0,6.77,0,7.25v7.77c0,0.49,0.39,0.88,0.88,0.88h3.89v39.21c0,0.49,0.39,0.88,0.88,0.88h25.13    c0.49,0,0.88-0.39,0.88-0.88V15.91h3.89c0.49,0,0.88-0.39,0.88-0.88V7.25C36.43,6.77,36.04,6.37,35.55,6.37z M11.33,1.76H25.1    v4.62H11.33V1.76z M29.9,46.14H19.13c-1.03,0-1.88-0.84-1.88-1.88V25.34c0-1.03,0.84-1.88,1.88-1.88H29.9V46.14z M29.9,21.71    H19.13c-2,0-3.63,1.63-3.63,3.63v18.92c0,2,1.63,3.63,3.63,3.63H29.9v6.35H6.53V15.91H29.9V21.71z M34.68,14.15H1.76V8.13h2.23    v4.35c0,0.49,0.39,0.88,0.88,0.88s0.88-0.39,0.88-0.88V8.13h2.73v4.35c0,0.49,0.39,0.88,0.88,0.88s0.88-0.39,0.88-0.88V8.13h2.73    v4.35c0,0.49,0.39,0.88,0.88,0.88c0.49,0,0.88-0.39,0.88-0.88V8.13h19.95V14.15z"></path>
		<path class="st0" d="M18.34,9.52c-0.49,0-0.88,0.39-0.88,0.88v2.08c0,0.49,0.39,0.88,0.88,0.88s0.88-0.39,0.88-0.88V10.4    C19.22,9.91,18.83,9.52,18.34,9.52z"></path>
		<path class="st0" d="M9.87,48.27c0.49,0,0.88-0.39,0.88-0.88V23.95c0-0.49-0.39-0.88-0.88-0.88c-0.49,0-0.88,0.39-0.88,0.88v23.43    C8.99,47.87,9.38,48.27,9.87,48.27z"></path>
		<path class="st0" d="M9.87,21.06c0.49,0,0.88-0.39,0.88-0.88v-0.59c0-0.49-0.39-0.88-0.88-0.88c-0.49,0-0.88,0.39-0.88,0.88v0.59    C8.99,20.66,9.38,21.06,9.87,21.06z"></path>
	</g>
</g>
</svg>