<?xml version="1.0" encoding="utf-8"?>
<!-- Generator: Adobe Illustrator 24.2.1, SVG Export Plug-In . SVG Version: 6.00 Build 0)  -->
<svg version="1.1" id="marijuana" xmlns="http://www.w3.org/2000/svg" xmlns:xlink="http://www.w3.org/1999/xlink" x="0px" y="0px"
	 viewBox="0 0 189.59 109" style="enable-background:new 0 0 189.59 109;" xml:space="preserve">
<style type="text/css">
	.st0{fill:#93BA4F;}
	.st1{fill:#043D38;}
</style>
<g>
	<g>
		<g>
			<g>
				<g>
					<rect x="40" y="54.58" class="st0" width="20.77" height="0.57"/>
				</g>
			</g>
			<g>
				<path class="st1" d="M44.69,51.08v-4.94h2.12v0.75h-1.38v1.35h1.01v0.75h-1.01v1.35h1.38v0.75H44.69z"/>
				<path class="st1" d="M50.06,49.85c0.01,0.34-0.08,0.64-0.27,0.88c-0.12,0.17-0.29,0.28-0.51,0.35
					c-0.12,0.04-0.26,0.06-0.41,0.06c-0.29,0-0.53-0.07-0.73-0.22c-0.16-0.12-0.29-0.28-0.38-0.48c-0.09-0.2-0.15-0.44-0.16-0.7
					l0.71-0.05c0.03,0.29,0.11,0.5,0.23,0.63c0.09,0.1,0.19,0.14,0.31,0.14c0.16-0.01,0.29-0.09,0.39-0.24
					c0.05-0.08,0.07-0.19,0.07-0.33c0-0.21-0.09-0.41-0.28-0.61c-0.15-0.14-0.37-0.35-0.66-0.63c-0.25-0.24-0.42-0.45-0.52-0.64
					c-0.11-0.21-0.17-0.44-0.17-0.69c0-0.45,0.15-0.79,0.45-1.02c0.19-0.14,0.42-0.21,0.69-0.21c0.27,0,0.49,0.06,0.68,0.18
					c0.15,0.09,0.27,0.22,0.36,0.39c0.09,0.17,0.15,0.36,0.16,0.57l-0.71,0.13c-0.02-0.2-0.08-0.36-0.17-0.47
					c-0.07-0.08-0.17-0.12-0.3-0.12c-0.14,0-0.24,0.06-0.31,0.18c-0.06,0.1-0.09,0.22-0.09,0.36c0,0.23,0.1,0.46,0.29,0.69
					c0.07,0.09,0.18,0.19,0.33,0.32c0.17,0.14,0.29,0.25,0.34,0.3c0.18,0.18,0.33,0.37,0.43,0.54c0.05,0.08,0.09,0.16,0.11,0.23
					C50.02,49.55,50.06,49.71,50.06,49.85z"/>
				<path class="st1" d="M51.65,46.89h-0.79v-0.75h2.33v0.75h-0.79v4.19h-0.75V46.89z"/>
				<path class="st1" d="M56.4,49.9c0,0.33-0.11,0.6-0.34,0.84c-0.23,0.23-0.5,0.35-0.83,0.35h-1.17v-4.94h1.17
					c0.33,0,0.6,0.12,0.83,0.35c0.23,0.23,0.34,0.51,0.34,0.83V49.9z M54.8,50.34h0.45c0.12,0,0.22-0.04,0.3-0.13
					c0.08-0.09,0.12-0.19,0.12-0.3v-2.59c0-0.12-0.04-0.22-0.12-0.3c-0.08-0.08-0.18-0.13-0.3-0.13H54.8V50.34z"/>
			</g>
		</g>
		<g>
			<g>
				<g>
					<rect x="128.89" y="54.58" class="st0" width="20.71" height="0.57"/>
				</g>
			</g>
			<g>
				<path class="st1" d="M134.52,51.08v-3.81h-0.63v-0.52c0.18-0.02,0.35-0.09,0.51-0.2c0.16-0.11,0.28-0.25,0.35-0.42h0.52v4.94
					H134.52z"/>
				<path class="st1" d="M137.3,46.07c0.33,0,0.6,0.12,0.81,0.35c0.21,0.23,0.31,0.5,0.31,0.83v2.7c0,0.33-0.11,0.61-0.32,0.84
					c-0.21,0.23-0.48,0.34-0.8,0.34c-0.33,0-0.6-0.12-0.81-0.35c-0.21-0.23-0.31-0.5-0.31-0.83v-0.11h0.77v0.12
					c0,0.12,0.03,0.22,0.1,0.3c0.06,0.08,0.16,0.12,0.27,0.12c0.12,0,0.21-0.04,0.27-0.12c0.06-0.08,0.1-0.18,0.1-0.3v-0.99
					c-0.17,0.16-0.36,0.23-0.56,0.23c-0.33,0-0.57-0.11-0.73-0.34c-0.14-0.2-0.22-0.48-0.22-0.84v-0.85h0
					c0.01-0.23,0.08-0.43,0.2-0.62c0.12-0.18,0.28-0.32,0.49-0.41C137,46.1,137.15,46.07,137.3,46.07z M137.7,47.26
					c0-0.12-0.03-0.22-0.1-0.31c-0.06-0.08-0.16-0.12-0.27-0.12c-0.12,0-0.21,0.04-0.27,0.12c-0.06,0.08-0.1,0.18-0.1,0.31v0.91
					c0,0.14,0.05,0.26,0.16,0.36c0.05,0.04,0.12,0.07,0.21,0.07c0.19,0,0.31-0.1,0.36-0.3c0.01-0.06,0.02-0.11,0.02-0.14V47.26z"/>
				<path class="st1" d="M140.38,50.37c0.34,0,0.51-0.16,0.51-0.48V49.6c0-0.51-0.27-0.76-0.8-0.76V48.2c0.29,0,0.5-0.08,0.63-0.24
					c0.13-0.14,0.19-0.35,0.19-0.61v-0.11c0-0.32-0.14-0.48-0.43-0.48c-0.16,0-0.27,0.06-0.35,0.18c-0.06,0.09-0.08,0.21-0.08,0.36
					v0.13h-0.73v-0.11c0-0.35,0.09-0.64,0.27-0.86c0.2-0.25,0.49-0.38,0.86-0.38c0.35,0,0.63,0.12,0.84,0.35
					c0.19,0.21,0.28,0.48,0.28,0.8v0.21c0,0.31-0.09,0.57-0.28,0.8c-0.08,0.09-0.17,0.17-0.28,0.24c0.22,0.12,0.39,0.31,0.51,0.56
					c0.06,0.13,0.09,0.29,0.09,0.47v0.39c0,0.37-0.13,0.67-0.37,0.9c-0.24,0.23-0.53,0.34-0.86,0.34c-0.33,0-0.61-0.12-0.84-0.35
					c-0.23-0.23-0.34-0.51-0.34-0.83v-0.12l0.71-0.06l0.02,0.17c0.01,0.12,0.05,0.22,0.13,0.3
					C140.15,50.33,140.25,50.37,140.38,50.37z"/>
				<path class="st1" d="M143.59,50.37c0.34,0,0.51-0.16,0.51-0.48V49.6c0-0.51-0.27-0.76-0.8-0.76V48.2c0.29,0,0.5-0.08,0.63-0.24
					c0.13-0.14,0.19-0.35,0.19-0.61v-0.11c0-0.32-0.14-0.48-0.43-0.48c-0.16,0-0.27,0.06-0.35,0.18c-0.06,0.09-0.08,0.21-0.08,0.36
					v0.13h-0.73v-0.11c0-0.35,0.09-0.64,0.27-0.86c0.2-0.25,0.49-0.38,0.86-0.38c0.35,0,0.63,0.12,0.84,0.35
					c0.19,0.21,0.28,0.48,0.28,0.8v0.21c0,0.31-0.09,0.57-0.28,0.8c-0.08,0.09-0.17,0.17-0.28,0.24c0.22,0.12,0.39,0.31,0.51,0.56
					c0.06,0.13,0.09,0.29,0.09,0.47v0.39c0,0.37-0.12,0.67-0.37,0.9c-0.24,0.23-0.53,0.34-0.86,0.34c-0.33,0-0.61-0.12-0.84-0.35
					c-0.23-0.23-0.34-0.51-0.34-0.83v-0.12l0.71-0.06l0.02,0.17c0.01,0.12,0.05,0.22,0.13,0.3
					C143.36,50.33,143.46,50.37,143.59,50.37z"/>
			</g>
		</g>
	</g>
	<g>
		<g>
			<path class="st0" d="M40.49,108.9h-1.12v-7.46h1.61l1.05,5.36l1.01-5.36h1.55v7.46h-1.12v-4.69l-0.98,4.69h-0.9l-1.09-4.68V108.9
				z"/>
			<path class="st0" d="M48.1,108.9v-7.46h3.2v1.13h-2.08v2.03h1.52v1.13h-1.52v2.03h2.08v1.13H48.1z"/>
			<path class="st0" d="M58.12,107.12c0,0.49-0.17,0.91-0.52,1.26c-0.35,0.35-0.76,0.52-1.25,0.52h-1.77v-7.46h1.77
				c0.49,0,0.91,0.17,1.25,0.52c0.34,0.35,0.51,0.77,0.51,1.26V107.12z M55.71,107.79h0.68c0.18,0,0.33-0.06,0.45-0.19
				c0.12-0.13,0.18-0.28,0.18-0.46v-3.9c0-0.18-0.06-0.33-0.19-0.46c-0.12-0.13-0.27-0.19-0.45-0.19h-0.68V107.79z"/>
			<path class="st0" d="M62.75,108.9h-1.12v-7.45h1.12V108.9z"/>
			<path class="st0" d="M68.04,109c-0.5,0-0.92-0.17-1.26-0.52c-0.35-0.35-0.52-0.77-0.52-1.26v-4.07c0-0.5,0.17-0.92,0.52-1.26
				c0.35-0.35,0.77-0.52,1.26-0.52c0.5,0,0.92,0.17,1.26,0.52c0.34,0.35,0.52,0.77,0.52,1.26V104h-1.17v-0.87
				c0-0.18-0.06-0.33-0.19-0.46c-0.13-0.13-0.28-0.19-0.46-0.19c-0.18,0-0.33,0.06-0.46,0.19c-0.12,0.13-0.19,0.28-0.19,0.46v4.08
				c0,0.18,0.06,0.33,0.19,0.46c0.12,0.12,0.28,0.19,0.46,0.19c0.18,0,0.33-0.06,0.46-0.19c0.13-0.12,0.19-0.28,0.19-0.46v-1.03
				h1.17v1.04c0,0.5-0.17,0.92-0.52,1.26C68.95,108.83,68.53,109,68.04,109z"/>
			<path class="st0" d="M74.42,107.19l-0.27,1.71h-1.17l1.27-7.45h1.55l1.25,7.45h-1.18l-0.26-1.71H74.42z M75.01,103.16l-0.42,2.94
				h0.83L75.01,103.16z"/>
			<path class="st0" d="M83.56,108.9H80.5v-7.45h1.12v6.34h1.94V108.9z"/>
			<path class="st0" d="M91.33,102.58h-1.2v-1.13h3.51v1.13h-1.19v6.32h-1.12V102.58z"/>
			<path class="st0" d="M98.83,101.45c0.63,0,1.09,0.17,1.38,0.52c0.26,0.3,0.39,0.72,0.39,1.26v1.08c0,0.53-0.2,0.97-0.6,1.34
				l0.83,3.25h-1.22l-0.68-2.81c-0.03,0-0.07,0-0.1,0h-0.65v2.81h-1.12v-7.45H98.83z M99.51,103.25c0-0.43-0.21-0.65-0.64-0.65
				h-0.68v2.39h0.68c0.18,0,0.33-0.06,0.46-0.19c0.13-0.13,0.19-0.28,0.19-0.46V103.25z"/>
			<path class="st0" d="M104.31,108.9v-7.46h3.2v1.13h-2.08v2.03h1.52v1.13h-1.52v2.03h2.08v1.13H104.31z"/>
			<path class="st0" d="M112.24,107.19l-0.27,1.71h-1.17l1.27-7.45h1.55l1.25,7.45h-1.18l-0.26-1.71H112.24z M112.83,103.16
				l-0.42,2.94h0.83L112.83,103.16z"/>
			<path class="st0" d="M118.46,102.58h-1.2v-1.13h3.51v1.13h-1.19v6.32h-1.12V102.58z"/>
			<path class="st0" d="M125.32,108.9h-1.12v-7.46h1.61l1.05,5.36l1.01-5.36h1.55v7.46h-1.12v-4.69l-0.98,4.69h-0.9l-1.09-4.68
				V108.9z"/>
			<path class="st0" d="M132.93,108.9v-7.46h3.2v1.13h-2.08v2.03h1.52v1.13h-1.52v2.03h2.08v1.13H132.93z"/>
			<path class="st0" d="M140.68,101.44l1.49,5.01v-5.01h1.12v7.46h-1.21l-1.55-4.78v4.78h-1.12v-7.46H140.68z"/>
			<path class="st0" d="M147.91,102.58h-1.2v-1.13h3.51v1.13h-1.19v6.32h-1.12V102.58z"/>
		</g>
	</g>
	<g>
		<g>
			<polygon class="st1" points="20.05,75.2 0,75.2 13.41,90.28 0,106.96 33.05,106.96 33.05,100.06 20.05,100.06 			"/>
			<polygon class="st1" points="189.59,75.2 169.49,75.2 169.49,100.06 156.49,100.06 156.49,106.96 189.59,106.96 176.19,90.28 			
				"/>
			<polygon class="st1" points="106.49,81.7 109.27,81.7 107.88,71.9 			"/>
			<polygon class="st1" points="53.26,81.7 56.04,81.7 54.65,71.9 			"/>
			<path class="st1" d="M166.56,61.5H22.98v35.04h143.59V61.5z M44.32,74.7h-3.87v-2.91c0-0.59-0.22-1.1-0.64-1.53
				c-0.42-0.42-0.93-0.63-1.53-0.63c-0.59,0-1.08,0.21-1.5,0.63c-0.42,0.42-0.6,0.93-0.6,1.53v13.6c0,0.59,0.19,1.1,0.6,1.52
				c0.42,0.42,0.91,0.62,1.51,0.62s1.1-0.21,1.53-0.62c0.42-0.42,0.63-0.92,0.63-1.52v-3.45h3.87v3.49c0,1.65-0.58,3.05-1.74,4.2
				c-1.16,1.15-2.56,1.73-4.18,1.73c-1.65,0-3.05-0.58-4.21-1.74c-1.16-1.16-1.73-2.55-1.73-4.19V71.87c0-1.65,0.58-3.06,1.74-4.21
				c1.16-1.16,2.56-1.74,4.2-1.74c1.65,0,3.05,0.58,4.2,1.75c1.15,1.16,1.72,2.57,1.72,4.2V74.7z M57.47,91.13l-0.88-5.76h-3.91
				l-0.91,5.76h-3.9l4.22-24.87h5.16l4.16,24.87H57.47z M78.91,91.13h-4.05l-5.13-16.01v16.01h-3.77V66.16h4.21l4.93,16.73V66.16
				h3.82V91.13z M96.53,91.13h-3.99L87.4,75.12v16.01h-3.77V66.16h4.22l4.97,16.73V66.16h3.72V91.13z M110.7,91.13l-0.88-5.76h-3.91
				L105,91.13h-3.9l4.22-24.87h5.16l4.16,24.87H110.7z M130.93,88.11c-0.46,0.86-1.12,1.59-1.96,2.1c-0.95,0.58-1.9,0.91-2.84,0.91
				h-6.97V66.16h5.64c1.48,0,2.82,0.4,4.01,1.18c1.02,0.66,1.75,1.69,2.18,3.08c0.24,0.74,0.36,1.62,0.36,2.64
				c0,1.67-0.44,3-1.33,4.01c-0.37,0.42-0.81,0.75-1.31,0.97c0.83,0.32,1.54,0.95,2.12,1.88c0.38,0.63,0.67,1.45,0.85,2.46
				c0.09,0.52,0.14,1.09,0.14,1.73C131.82,85.68,131.52,87.01,130.93,88.11z M140.21,91.13h-3.77V66.26h3.77V91.13z M155.79,89.3
				c-0.61,0.83-1.47,1.42-2.58,1.77c-0.59,0.19-1.29,0.28-2.08,0.28c-1.47,0-2.68-0.36-3.65-1.09c-0.81-0.6-1.44-1.4-1.91-2.43
				c-0.47-1.02-0.74-2.2-0.82-3.52l3.57-0.26c0.16,1.45,0.54,2.5,1.15,3.15c0.45,0.49,0.96,0.72,1.55,0.7
				c0.82-0.03,1.47-0.43,1.96-1.21c0.25-0.38,0.38-0.93,0.38-1.65c0-1.03-0.47-2.06-1.41-3.08c-0.74-0.7-1.85-1.75-3.33-3.16
				c-1.24-1.2-2.12-2.28-2.64-3.24c-0.56-1.07-0.83-2.24-0.83-3.49c0-2.26,0.76-3.98,2.28-5.14c0.94-0.7,2.1-1.05,3.49-1.05
				c1.34,0,2.48,0.3,3.43,0.89c0.74,0.46,1.34,1.11,1.79,1.94c0.46,0.83,0.73,1.79,0.82,2.88l-3.59,0.65
				c-0.11-1.02-0.4-1.81-0.87-2.38c-0.34-0.41-0.84-0.61-1.49-0.61c-0.69,0-1.21,0.3-1.57,0.91c-0.29,0.49-0.44,1.1-0.44,1.82
				c0,1.14,0.49,2.29,1.47,3.47c0.37,0.45,0.93,0.98,1.67,1.59c0.87,0.73,1.45,1.24,1.73,1.53c0.93,0.93,1.64,1.84,2.14,2.74
				c0.24,0.42,0.43,0.81,0.58,1.17c0.36,0.89,0.54,1.68,0.56,2.38C157.17,86.59,156.72,88.07,155.79,89.3z"/>
			<path class="st1" d="M124.8,79.96h-1.62v7.4h1.62c1.27,0,2.15-0.66,2.64-1.97c0.17-0.45,0.26-0.97,0.26-1.55
				c0-1.39-0.26-2.38-0.79-3.02C126.43,80.23,125.73,79.96,124.8,79.96z"/>
			<path class="st1" d="M127.14,74.65c0.15-0.42,0.22-0.96,0.22-1.58c0-1.03-0.25-1.79-0.75-2.32c-0.46-0.49-1.06-0.72-1.8-0.72
				h-1.62v6.35h1.62C125.96,76.39,126.74,75.79,127.14,74.65z"/>
		</g>
	</g>
	<path class="st0" d="M95.88,48.76c2.16,2,7.02,5.83,14.23,7.12c-0.26-1.26-2.6-5.85-7.47-7.98c16.33,0.87,27.35-5.18,27.35-5.18
		s-11.62-4.07-27.15-0.94c15.48-10.96,20.14-24.5,20.14-24.5s-14.03,5-24.91,19.52C102.13,17.73,96.25,3.2,94.81,0
		c-1.44,3.2-7.33,17.73-3.27,36.79C80.66,22.27,66.62,17.27,66.62,17.27s4.66,13.54,20.14,24.5c-15.53-3.13-27.15,0.94-27.15,0.94
		s11.01,6.05,27.35,5.18c-4.87,2.13-7.21,6.72-7.46,7.98c7.06-1.26,11.7-4.96,14.1-6.99v8.15h2.28V48.76z"/>
</g>
</svg>
