<svg xmlns="http://www.w3.org/2000/svg" width="20" height="20" viewBox="0 0 20 20"><defs><style>
      .cls-1 {
        fill: #fff;
        fill-rule: evenodd;
      }
    </style></defs><path id="Call" class="cls-1" d="M486.014,8168.15a1.7,1.7,0,0,1,.606.19,2.189,2.189,0,0,1,.508.39,1.761,1.761,0,0,1,.332.53,1.7,1.7,0,0,1,.117.64v4.69a1.732,1.732,0,0,1-.508,1.25,1.853,1.853,0,0,1-.566.39,1.518,1.518,0,0,1-.684.16h-1.758v-1.21h-1.172v-5.86h1.172v-1.17h0.7a8.658,8.658,0,0,0-1.113-2.41,8.868,8.868,0,0,0-1.66-1.85,7.081,7.081,0,0,0-2.071-1.21,6.6,6.6,0,0,0-4.687,0,7.063,7.063,0,0,0-2.07,1.21,8.84,8.84,0,0,0-1.66,1.85,8.632,8.632,0,0,0-1.114,2.41h0.7v1.17h1.172v5.86h-1.172v1.21h-1.25a3.459,3.459,0,0,0,.371.9,3.081,3.081,0,0,0,.645.76,2.977,2.977,0,0,0,.859.51,3.042,3.042,0,0,0,1.016.17h3.2a1.653,1.653,0,0,1,.234-0.49,1.864,1.864,0,0,1,.372-0.37,1.558,1.558,0,0,1,.488-0.23,2.062,2.062,0,0,1,.547-0.08h3.515a1.757,1.757,0,0,1,.7.14,1.674,1.674,0,0,1,.547.37,2.064,2.064,0,0,1,.391.54,1.626,1.626,0,0,1,0,1.39,2.065,2.065,0,0,1-.391.57,1.846,1.846,0,0,1-.547.37,1.757,1.757,0,0,1-.7.14h-3.515a2.062,2.062,0,0,1-.547-0.08,1.272,1.272,0,0,1-.488-0.26,1.723,1.723,0,0,1-.372-0.39,1.559,1.559,0,0,1-.234-0.45h-3.2a3.73,3.73,0,0,1-1.484-.29,4.219,4.219,0,0,1-2.149-1.93,3.959,3.959,0,0,1-.43-1.45,1.316,1.316,0,0,1-.449-0.25,1.772,1.772,0,0,1-.351-0.39,2,2,0,0,1-.215-0.47,1.785,1.785,0,0,1-.078-0.53v-4.69a1.7,1.7,0,0,1,.117-0.64,1.723,1.723,0,0,1,.332-0.53,2.147,2.147,0,0,1,.508-0.39,1.68,1.68,0,0,1,.605-0.19,10.554,10.554,0,0,1,1.25-2.87,9,9,0,0,1,4.395-3.68,7.761,7.761,0,0,1,5.586,0,9,9,0,0,1,4.394,3.68,10.585,10.585,0,0,1,1.25,2.87h0Zm-8.437,10.58a0.964,0.964,0,0,0-.235.04,0.575,0.575,0,0,0-.195.12,0.5,0.5,0,0,0-.117.19,0.773,0.773,0,0,0-.039.24,0.525,0.525,0,0,0,.039.21,0.771,0.771,0,0,0,.117.2,0.393,0.393,0,0,0,.195.13,0.646,0.646,0,0,0,.235.04h3.515a0.646,0.646,0,0,0,.235-0.04,0.393,0.393,0,0,0,.195-0.13,0.8,0.8,0,0,0,.117-0.2,0.525,0.525,0,0,0,.039-0.21,0.773,0.773,0,0,0-.039-0.24,0.515,0.515,0,0,0-.117-0.19,0.575,0.575,0,0,0-.195-0.12,0.964,0.964,0,0,0-.235-0.04h-3.515Zm-7.657-3.55v-5.86h-0.585a0.5,0.5,0,0,0-.215.04,0.635,0.635,0,0,0-.2.11,0.448,0.448,0,0,0-.136.2,0.73,0.73,0,0,0-.039.23v4.69a0.744,0.744,0,0,0,.039.24,0.42,0.42,0,0,0,.136.19,1,1,0,0,0,.2.12,0.715,0.715,0,0,0,.215.04h0.585Zm16.485-.59v-4.69a0.792,0.792,0,0,0-.039-0.23,0.459,0.459,0,0,0-.137-0.2,0.655,0.655,0,0,0-.195-0.11,0.509,0.509,0,0,0-.215-0.04h-0.586v5.86h0.586a0.733,0.733,0,0,0,.215-0.04,1.06,1.06,0,0,0,.195-0.12,0.43,0.43,0,0,0,.137-0.19,0.8,0.8,0,0,0,.039-0.24h0Z" transform="translate(-467.562 -8161.06)"></path></svg>