<svg id="logo" xmlns="http://www.w3.org/2000/svg" width="172.812" height="21.75" viewBox="0 0 172.812 21.75">
  <defs>
    <style>
      .cls-1 {
        fill: #fff;
      }

      .cls-1, .cls-2 {
        fill-rule: evenodd;
      }

      .cls-2 {
        fill: #f45f0b;
      }
    </style>
  </defs>
  <path class="cls-1" d="M425.121,89.732a9.427,9.427,0,0,1-3.763-3.552,10.526,10.526,0,0,1,0-10.357,9.432,9.432,0,0,1,3.763-3.552A11.34,11.34,0,0,1,430.515,71a11.7,11.7,0,0,1,4.908.984,9.148,9.148,0,0,1,3.561,2.842l-4.019,3.635a5.139,5.139,0,0,0-4.127-2.241,4.188,4.188,0,0,0-3.209,1.3,5.608,5.608,0,0,0,0,6.969,4.186,4.186,0,0,0,3.209,1.3,5.135,5.135,0,0,0,4.127-2.241l4.019,3.635a9.138,9.138,0,0,1-3.561,2.842,11.7,11.7,0,0,1-4.908.984A11.347,11.347,0,0,1,425.121,89.732Zm19.715-.014a9.562,9.562,0,0,1-3.8-3.566,10.329,10.329,0,0,1,0-10.3,9.569,9.569,0,0,1,3.8-3.567,12.316,12.316,0,0,1,10.95,0,9.566,9.566,0,0,1,3.8,3.567,10.329,10.329,0,0,1,0,10.3,9.559,9.559,0,0,1-3.8,3.566A12.311,12.311,0,0,1,444.836,89.718Zm7.618-4.522a4.182,4.182,0,0,0,1.524-1.667,5.917,5.917,0,0,0,0-5.055,4.182,4.182,0,0,0-1.524-1.667,4.2,4.2,0,0,0-4.287,0,4.175,4.175,0,0,0-1.524,1.667,5.917,5.917,0,0,0,0,5.055,4.175,4.175,0,0,0,1.524,1.667A4.2,4.2,0,0,0,452.454,85.2Zm29.438-13.76v19.13H476.66l-7.174-8.69v8.69h-6.2V71.437h5.232l7.174,8.691v-8.69h6.2Zm7.444,18.3a9.421,9.421,0,0,1-3.763-3.552,10.526,10.526,0,0,1,0-10.357,9.425,9.425,0,0,1,3.763-3.552A11.34,11.34,0,0,1,494.73,71a11.7,11.7,0,0,1,4.908.984,9.137,9.137,0,0,1,3.56,2.842L499.18,78.46a5.139,5.139,0,0,0-4.127-2.241,4.188,4.188,0,0,0-3.209,1.3,5.608,5.608,0,0,0,0,6.969,4.186,4.186,0,0,0,3.209,1.3,5.135,5.135,0,0,0,4.127-2.241l4.018,3.635a9.128,9.128,0,0,1-3.56,2.842A11.7,11.7,0,0,1,494.73,91,11.347,11.347,0,0,1,489.336,89.732Zm31.393-4.03v4.864h-15.7V71.437h15.346V76.3h-9.089v2.24h7.983v4.645h-7.983V85.7h9.44Zm10.545,0.054h-1.726v4.81h-6.365V71.437h9.089a11.02,11.02,0,0,1,4.558.875,6.745,6.745,0,0,1,2.993,2.514,6.923,6.923,0,0,1,1.052,3.826,6.834,6.834,0,0,1-.917,3.58,6.506,6.506,0,0,1-2.643,2.433l3.965,5.9h-6.8ZM533.809,77a2.813,2.813,0,0,0-1.942-.587h-2.319v4.482h2.319a2.81,2.81,0,0,0,1.942-.588A2.437,2.437,0,0,0,533.809,77Zm13.3-.559h-5.53v-5H559v5h-5.529V90.566h-6.365V76.438Z" transform="translate(-386.188 -70)"/>
  <path class="cls-2" d="M394.621,72.3L393.06,84.3a4.25,4.25,0,0,0-6.855,2.724,4.238,4.238,0,0,0,8.408,1.068l1.455-11.182,11.092-1.679-0.923,7.1a4.251,4.251,0,0,0-6.856,2.725,4.239,4.239,0,0,0,8.338,1.454l0.02,0,2.148-16.514Zm0,0" transform="translate(-386.188 -70)"/>
</svg>
